<svg viewBox="0 0 64 64" xmlns="http://www.w3.org/2000/svg"><path d="M18.401 13.539V4.94c-2.764.66-5.173 3.994-6.496 8.599ZM18.401 15.539h-6.979a29.79 29.79 0 0 0-.573 4.985H18.4ZM18.401 22.524H10.85a29.688 29.688 0 0 0 .644 5.354h6.908ZM20.401 4.94v8.598h6.495c-1.323-4.604-3.73-7.938-6.495-8.598ZM28.99 13.539h6.208a17.723 17.723 0 0 0-11.55-9.195c2.368 1.798 4.265 5.064 5.343 9.195ZM29.363 27.878h6.558a17.614 17.614 0 0 0 1.144-5.354h-7.113a32.344 32.344 0 0 1-.589 5.354ZM18.401 38.108v-8.23h-6.38c1.345 4.411 3.691 7.589 6.38 8.23ZM36.056 15.539h-6.618a32.617 32.617 0 0 1 .514 4.985h7.113a17.613 17.613 0 0 0-1.01-4.986ZM23.654 38.703a17.733 17.733 0 0 0 11.366-8.825h-6.129c-1.091 3.954-2.942 7.08-5.237 8.825ZM9.363 15.539H2.745a17.62 17.62 0 0 0-1.008 4.985H8.85a32.617 32.617 0 0 1 .513-4.986ZM26.78 29.878h-6.379v8.23c2.689-.641 5.035-3.819 6.379-8.23ZM15.148 38.703c-2.295-1.746-4.146-4.871-5.238-8.825H3.78a17.733 17.733 0 0 0 11.367 8.825ZM8.85 22.524H1.737a17.614 17.614 0 0 0 1.143 5.354h6.558a32.365 32.365 0 0 1-.588-5.354ZM15.154 4.344a17.724 17.724 0 0 0-11.55 9.195H9.81c1.077-4.131 2.974-7.397 5.343-9.195ZM27.952 22.524h-7.55v5.354h6.906a29.688 29.688 0 0 0 .644-5.354ZM27.379 15.539H20.4v4.985h7.551a29.8 29.8 0 0 0-.573-4.986ZM28.12 56.671h-8.963a4.407 4.407 0 0 1-4.401-4.401V48.4l1.554 1.385a1.75 1.75 0 1 0 2.326-2.616l-4.468-3.976a1.75 1.75 0 0 0-2.326 0l-4.467 3.976A1.75 1.75 0 0 0 9.7 49.785l1.555-1.384v3.869a7.91 7.91 0 0 0 7.901 7.901h8.964a1.75 1.75 0 1 0 0-3.5ZM37.718 10.715h8.965a4.406 4.406 0 0 1 4.4 4.402V19l-1.552-1.382a1.75 1.75 0 0 0-2.328 2.613l4.467 3.976a1.75 1.75 0 0 0 2.327.001l4.468-3.976a1.75 1.75 0 0 0-2.326-2.615L54.584 19v-3.883a7.91 7.91 0 0 0-7.9-7.902h-8.965a1.75 1.75 0 0 0 0 3.5ZM60.556 49.425a12.176 12.176 0 0 0-6.55-6.48 1.19 1.19 0 0 1-.72-1.093 1.212 1.212 0 0 1 .377-.89c.074-.07.144-.139.197-.194a7.44 7.44 0 0 0 .98-1.288A7.4 7.4 0 0 0 47.1 28.41a7.23 7.23 0 0 0-5.836 5.67 7.4 7.4 0 0 0 2.04 6.868 1.255 1.255 0 0 1 .392.892v.006a1.19 1.19 0 0 1-.72 1.104 12.18 12.18 0 0 0-6.548 6.489 15.493 15.493 0 0 0-1.291 6.38V57.4a2.581 2.581 0 0 0 2.58 2.581h21.55A2.582 2.582 0 0 0 61.85 57.4v-1.597a15.459 15.459 0 0 0-1.293-6.378Z" fill="#747474" class="fill-000000"></path></svg>