<svg xmlns="http://www.w3.org/2000/svg" viewBox="0 0 64 64"><defs><style>.cls-1{fill:#35353d;}</style></defs><title>Asset 51</title><g id="Layer_2" data-name="Layer 2"><g id="Layer_1-2" data-name="Layer 1"><path class="cls-1" d="M61.33,58.67H7l9.9-19.8L30.29,50.05a2.67,2.67,0,0,0,4-.68L50,23.24l1.31,4.09a2.67,2.67,0,0,0,2.54,1.86,2.54,2.54,0,0,0,.81-.13,2.68,2.68,0,0,0,1.73-3.35L53,15.34a2.66,2.66,0,0,0-3.35-1.73L39.53,16.84a2.67,2.67,0,0,0,1.62,5.08l4.19-1.33L31.32,44,17.71,32.62a2.68,2.68,0,0,0-4.1.85L5.33,50V2.67A2.67,2.67,0,1,0,0,2.67V61.33a3.49,3.49,0,0,0,.07.37,2.62,2.62,0,0,0,.12.57,2.76,2.76,0,0,0,.25.44,2.79,2.79,0,0,0,.28.42,2.58,2.58,0,0,0,.45.35,2.25,2.25,0,0,0,.3.24l.11,0,.15.05a2.58,2.58,0,0,0,.93.19H61.33a2.67,2.67,0,1,0,0-5.33Z" id="id_137" style="fill: rgb(115, 115, 115);"></path></g></g></svg>